<svg width="18" height="16" viewBox="0 0 18 16" fill="none" xmlns="http://www.w3.org/2000/svg">
<path d="M3.33719 5.84H4.74695L4.96367 12.32H3.14963L3.33719 5.84ZM2.15999 12.68H15.84V13.4H16.92V14.48H17.64V15.2H0.359985V14.48H1.07999V13.4H2.15999V12.68ZM16.56 3.97232L9.00071 0.800003L1.43999 3.97232V4.4H16.56V3.97232ZM2.87999 4.76H15.12V5.48H2.87999V4.76ZM13.2249 5.84H14.634L14.8525 12.32H13.0359L13.2249 5.84ZM9.93023 5.84H11.3393L11.5553 12.32H9.74051L9.93023 5.84ZM6.63479 5.84H8.04419L8.25875 12.32H6.44471L6.63479 5.84Z" fill="#FF8966"/>
</svg>
